<svg width="280" height="219" viewBox="0 0 280 219" fill="none" xmlns="http://www.w3.org/2000/svg">
<path d="M197.575 29.4643C195.155 29.4643 192.766 29.5891 190.41 29.7763C212.211 49.6794 225.814 77.8651 225.814 109.124C225.814 140.382 212.211 168.583 190.41 188.471C192.782 188.674 195.171 188.783 197.575 188.783C243.096 188.783 280 153.11 280 109.108C280 65.1059 243.096 29.4331 197.575 29.4331V29.4643Z" fill="url(#paint0_linear_712_2168)"/>
<path d="M107.259 109.14C107.259 65.933 139.725 30.0886 182.358 23.0851C163.204 8.62572 139.096 0 112.907 0C50.5555 0 0 48.8687 0 109.14C0 169.41 50.5555 218.279 112.907 218.279C139.096 218.279 163.204 209.653 182.358 195.194C139.725 188.191 107.259 152.346 107.259 109.14Z" fill="#1E2E3D"/>
<defs>
<linearGradient id="paint0_linear_712_2168" x1="191.059" y1="188.199" x2="247.059" y2="46.5519" gradientUnits="userSpaceOnUse">
<stop offset="0.25" stop-color="#A1C4FD"/>
<stop offset="1" stop-color="#C2E9FB"/>
</linearGradient>
</defs>
</svg>
